<svg xmlns="http://www.w3.org/2000/svg" width="900" height="250" viewBox="0 0 900 250">
<defs><clipPath id="bar"><rect x="493" y="84" width="365" height="9" rx="4"/></clipPath></defs>
<rect x="1" y="1" width="436" height="248" rx="16" fill="#f3f8fc" stroke="#dceaf4"/><rect x="453" y="1" width="446" height="248" rx="16" fill="#f3f8fc" stroke="#dceaf4"/>
<g font-family="Arial,Helvetica,sans-serif">
<text x="30" y="44" font-size="17" font-weight="700" fill="#35556d">GitHub overview</text><text x="30" y="66" font-size="11" fill="#829aad">WOODONG22 / PUBLIC PROFILE</text>
<text x="30" y="115" font-size="12" fill="#7290a6">REPOSITORIES</text><text x="280" y="118" font-size="27" fill="#35556d">5</text>
<path d="M30 135H407" stroke="#e0ebf3"/>
<text x="30" y="166" font-size="12" fill="#7290a6">FOLLOWERS</text><text x="280" y="169" font-size="27" fill="#35556d">7</text>
<text x="30" y="220" font-size="11" fill="#829aad">GitHub API · Snapshot 2026.10.01</text>
<text x="483" y="44" font-size="17" font-weight="700" fill="#35556d">Most used languages</text><text x="483" y="66" font-size="11" fill="#829aad">PUBLIC REPOSITORIES / CODE BYTES</text>
<g clip-path="url(#bar)"><path d="M493 88.5H847.48" stroke="#8cb9d5" stroke-width="9"/><path d="M847.48 88.5H855.61" stroke="#a6cdbd" stroke-width="9"/><path d="M855.61 88.5H858" stroke="#b4b8de" stroke-width="9"/></g>
<circle cx="489" cy="126" r="4" fill="#8cb9d5"/><text x="502" y="130" font-size="13" fill="#526f86">Java</text><text x="817" y="130" font-size="13" fill="#7290a6">97.1%</text>
<circle cx="489" cy="158" r="4" fill="#a6cdbd"/><text x="502" y="162" font-size="13" fill="#526f86">HTML</text><text x="824" y="162" font-size="13" fill="#7290a6">2.2%</text>
<circle cx="489" cy="190" r="4" fill="#b4b8de"/><text x="502" y="194" font-size="13" fill="#526f86">CSS</text><text x="824" y="194" font-size="13" fill="#7290a6">0.6%</text>
<text x="483" y="220" font-size="11" fill="#829aad">Language share reflects file size, not proficiency.</text>
</g></svg>

